# xmcd CD database file
#
# Track frame offsets:
#	150
#	24609
#	56641
#	98111
#	130136
#	167003
#	201372
#	231956
#	279371
#	311549
#
# Disc length: 4440 seconds
#
# Revision: 6
# Processed by: cddbd v1.5.2PL0 Copyright (c) Steve Scherf et al.
# Submitted via: CDex 1.51
#
DISCID=8711560a
DTITLE=Patricia Cornwell - 10 - Blinder Passagier CD02
DYEAR=2002
DGENRE=Krimi
TTITLE0=201
TTITLE1=202
TTITLE2=203
TTITLE3=204
TTITLE4=205
TTITLE5=206
TTITLE6=207
TTITLE7=208
TTITLE8=209
TTITLE9=210
EXTD=YEAR: 2002
EXTT0=
EXTT1=
EXTT2=
EXTT3=
EXTT4=
EXTT5=
EXTT6=
EXTT7=
EXTT8=
EXTT9=
PLAYORDER=
